# xmcd
#
# Track frame offsets:
#	150
#	22400
#	35653
#	49720
#	70260
#	91220
#	108773
#	128103
#	140203
#	155503
#	167210
#	185585
#	206118
#	225510
#	245368
#	257170
#	275915
#	295510
#
# Disc length: 4160 seconds
#
# Revision: 1
# Processed by: cddbd v1.5.1PL0 Copyright (c) Steve Scherf et al.
# Submitted via: EasyCDDAExtractor 6.2.0.3
#
DISCID=12103e12
DTITLE=Various Artist - 55 Miles From Mexico
DYEAR=1993
DGENRE=Country
TTITLE0=Woodcocks - The Carp Pond
TTITLE1=Al Perry and The Cattle - Louisiana Blues
TTITLE2=Brillant Fools - Responsible
TTITLE3=Stefan George - Line Of Duty
TTITLE4=Mean Reds - Square Junction Fix
TTITLE5=Phantom Limbs - I Forget
TTITLE6=Van Christian - The Mouse That Roared
TTITLE7=Fish Kharma - Poodlecide
TTITLE8=Gila Bend - Big Blue Ford
TTITLE9=Caitlin Von Schmidt - Every Heard Has A Doorknob
TTITLE10=Luminarios - Empty Eyes
TTITLE11=Studdrifters - Fly Away
TTITLE12=David Slutes - Salamander Man
TTITLE13=Big Bug - No Way I'll Play
TTITLE14=The Overcoat - Beverly Pepper
TTITLE15=Eye Pennies - Medicine Dream
TTITLE16=Broken Horse - Western Scars
TTITLE17=U And The Risk - Diana
EXTD=YEAR - 1993\nEFA CD 06187  ( Houses in Motion  HIM 8917 )
EXTT0=
EXTT1=
EXTT2=
EXTT3=
EXTT4=
EXTT5=
EXTT6=
EXTT7=
EXTT8=
EXTT9=
EXTT10=
EXTT11=
EXTT12=
EXTT13=
EXTT14=
EXTT15=
EXTT16=
EXTT17=
PLAYORDER=
